HIERARCHY
ROOT Hips
{
  OFFSET -0.465117 89.5968 258.914
  CHANNELS 6 Xposition Yposition Zposition Zrotation Xrotation Yrotation
  JOINT Spine
  {
    OFFSET -0.000355721 21.3001 -0.016921
    CHANNELS 3 Zrotation Xrotation Yrotation
    JOINT LeftArm
    {
      OFFSET 13.5181 21.3012 0
      CHANNELS 3 Zrotation Xrotation Yrotation
      JOINT LeftForeArm
      {
        OFFSET 24.5783 0 0
        CHANNELS 3 Zrotation Xrotation Yrotation
        JOINT LeftHand
        {
          OFFSET 24.5783 0 0
          CHANNELS 3 Zrotation Xrotation Yrotation
          End Site
          {
            OFFSET 7.32568 1.52588e-05 0.0169305
          }
        }
      }
    }
    JOINT Head
    {
      OFFSET 0 27.4458 -0.00489235
      CHANNELS 3 Zrotation Xrotation Yrotation
      End Site
      {
        OFFSET 0 0 0
      }
    }
    JOINT RightArm
    {
      OFFSET -13.5174 21.3012 0
      CHANNELS 3 Zrotation Xrotation Yrotation
      JOINT RightForeArm
      {
        OFFSET -24.5783 0 0
        CHANNELS 3 Zrotation Xrotation Yrotation
        JOINT RightHand
        {
          OFFSET -24.5783 0 0
          CHANNELS 3 Zrotation Xrotation Yrotation
          End Site
          {
            OFFSET -7.32568 1.52588e-05 0.0169305
          }
        }
      }
    }
  }
  JOINT RightUpLeg
  {
    OFFSET -8.44614 -9.41038 0.835684
    CHANNELS 3 Zrotation Xrotation Yrotation
    JOINT RightLeg
    {
      OFFSET 0 -40.9639 0
      CHANNELS 3 Zrotation Xrotation Yrotation
      JOINT RightFoot
      {
        OFFSET 0 -40.9639 0
        CHANNELS 3 Zrotation Xrotation Yrotation
        End Site
        {
          OFFSET 0.50614 -9.67405 14.6709
        }
      }
    }
  }
  JOINT LeftUpLeg
  {
    OFFSET 8.44614 -9.41038 0.835684
    CHANNELS 3 Zrotation Xrotation Yrotation
    JOINT LeftLeg
    {
      OFFSET 0 -40.9639 0
      CHANNELS 3 Zrotation Xrotation Yrotation
      JOINT LeftFoot
      {
        OFFSET 0 -40.9639 0
        CHANNELS 3 Zrotation Xrotation Yrotation
        End Site
        {
          OFFSET -0.50614 -9.67405 14.6709
        }
      }
    }
  }
}
MOTION
Frames:	26
Frame Time:	0.0333333
10.4283 89.41 132.246 -6.07395 2.15566 -49.0264 -4.58333 5.05082 -6.04287 -23.2829 21.5689 -43.0141 0.000343543 2.26199e-05 -48.2531 18.5752 -29.4294 -7.34218 3.64608 7.73703 -20.6763 87.6071 14.5593 -39.6522 -7.35618e-05 -4.78315e-06 27.2571 9.94713 -3.20253 -12.7469 8.43949 -25.7929 -13.3205 -15.032 46.233 20.6723 6.59309 -38.5503 3.96503 7.79098 2.33025 32.8432 4.78681 28.5067 4.62894 -12.8244 -55.7311 -2.83654 
10.5925 89.43 134.98 -5.7553 2.52607 -46.8153 -4.1163 5.09876 -6.1667 -24.0591 21.4914 -46.1095 0.000345383 2.03718e-05 -53.154 17.6448 -26.2247 -7.48806 3.57822 6.57731 -18.5602 88.9632 17.6322 -34.8792 -7.34244e-05 -4.7098e-06 28.9162 7.46184 -2.32026 -14.8369 11.4485 -26.2429 -15.3322 -13.3395 38.4702 18.1474 7.86796 -37.5699 4.64392 6.27123 3.73232 32.0736 4.10905 26.2131 3.88515 -11.9077 -56.3803 -2.74078 
10.62 89.3652 137.792 -5.37511 2.82288 -44.1077 -3.70643 5.14046 -6.19525 -24.5048 22.4055 -49.6791 0.000346588 1.86567e-05 -56.6892 15.1061 -22.3217 -8.02165 3.64284 5.5421 -17.3759 89.3875 20.3142 -30.1559 -7.32785e-05 -4.62622e-06 30.7065 2.4615 -2.16497 -16.5663 13.5927 -26.3799 -17.4309 -11.0364 30.3119 15.4749 8.2076 -36.3976 4.1426 4.807 5.44767 31.4596 3.51621 23.5198 2.48395 -10.9839 -56.8367 -2.59575 
10.5157 89.2041 140.718 -4.88446 3.06274 -40.8833 -3.32264 5.13108 -6.25505 -24.098 24.3736 -53.6408 0.000347324 1.74854e-05 -59.0226 12.855 -18.5493 -8.36607 3.92967 4.50024 -16.9959 88.9775 23.0436 -25.7665 -7.30835e-05 -4.5047e-06 33.1533 -3.82908 -3.67672 -18.3554 14.0678 -26.115 -18.337 -6.0187 22.3085 12.2273 6.42711 -35.4526 1.74689 3.31345 7.58597 31.1693 3.05941 20.1836 0.231944 -9.99201 -57.0088 -2.36727 
10.286 88.9057 143.772 -4.3113 3.30408 -37.2676 -2.95203 5.02967 -6.44878 -22.413 27.1173 -57.8275 0.000347853 1.65712e-05 -60.8046 11.9771 -15.4582 -7.78484 4.29526 3.32025 -17.1318 87.2563 25.8452 -21.5628 -7.28346e-05 -4.33194e-06 36.3798 -8.94222 -7.2071 -20.259 14.2315 -25.614 -17.8489 -2.00477 14.2683 9.39272 5.0834 -34.7493 -0.267896 1.69568 10.2106 30.6947 2.74565 16.0323 -2.11125 -9.20208 -56.8014 -2.13242 
9.93776 88.432 146.98 -3.76935 3.62985 -33.516 -2.51496 4.8644 -6.70005 -19.5054 30.1869 -62.114 0.000348231 1.5876e-05 -62.1391 11.7212 -12.6991 -6.59338 4.52877 1.99049 -17.3816 83.9568 28.2541 -17.2052 -7.25984e-05 -4.14755e-06 39.5712 -10.9914 -11.6768 -21.5329 14.0007 -26.0992 -16.8798 0.173693 9.05256 7.41264 3.95341 -34.6284 -0.295329 -0.11998 13.6979 29.603 2.48971 10.3513 -3.61652 -8.93608 -55.8874 -1.96054 
9.48919 87.8675 150.276 -3.35153 4.04655 -29.8252 -1.92916 4.71374 -6.77909 -15.7679 33.1532 -66.4202 0.0003484 1.55531e-05 -62.7533 10.7204 -9.43962 -5.82602 4.53075 0.579914 -17.4936 79.5997 29.7691 -12.6386 -7.24672e-05 -4.03556e-06 41.408 -10.3977 -14.9733 -21.5272 13.3924 -28.3188 -15.9081 0.302622 9.02572 7.68359 1.75776 -35.1554 -0.289233 -0.920043 16.1897 28.0977 2.42441 7.4306 -4.31631 -10.6038 -54.6419 -3.48244 
8.9451 87.329 153.619 -3.10526 4.48509 -26.2396 -1.15373 4.63343 -6.57072 -11.4971 35.8097 -70.6682 0.00034835 1.56495e-05 -62.5703 8.83074 -5.75256 -5.73854 4.35412 -0.820065 -17.3955 75.0561 30.3777 -8.03872 -7.24863e-05 -4.05231e-06 41.1376 -9.04144 -15.8441 -20.5973 12.6752 -31.4397 -15.0851 -1.48177 13.3213 8.80626 -1.4745 -35.3242 -0.255518 -0.494479 16.9552 26.8902 2.88227 8.69558 -4.65482 -15.0198 -53.3043 -7.62642 
8.29253 86.8873 156.993 -3.00885 4.83191 -22.8931 -0.286375 4.64806 -6.12898 -6.99005 38.3283 -74.464 0.000348123 1.60788e-05 -61.7515 7.20266 -2.70652 -5.677 4.22904 -2.04872 -16.915 70.8148 30.6052 -3.3229 -7.26483e-05 -4.18831e-06 38.885 -8.29832 -14.8392 -19.9343 11.8847 -34.0619 -14.9074 -4.50631 19.2304 9.81091 -4.06424 -34.5581 -0.164188 0.379269 16.9643 26.2799 4.0684 11.9413 -5.35539 -20.4834 -50.6092 -12.4959 
7.54606 86.4283 160.447 -3.01899 5.02265 -20.0767 0.400386 4.74108 -5.55301 -2.67938 41.2191 -77.2483 0.000347665 1.69046e-05 -60.1584 6.92109 -1.14272 -5.3042 4.34235 -2.92614 -15.7443 66.9223 31.0324 1.77738 -7.29032e-05 -4.38165e-06 35.4778 -7.96617 -13.2005 -20.3978 10.8628 -35.9109 -15.941 -7.94361 25.6164 10.8712 -5.07122 -34.179 -0.113016 1.81703 15.4156 25.6806 6.06516 18.6715 -7.37156 -24.9869 -46.2371 -15.5837 
6.78491 86.0228 163.905 -3.22823 5.14744 -18.0573 0.996467 4.86108 -4.80848 0.687406 44.6856 -78.1886 0.000347083 1.78802e-05 -58.2427 7.89372 -1.33769 -4.23756 4.58839 -3.40019 -13.8331 63.2504 31.9028 7.00583 -7.31312e-05 -4.53552e-06 32.5483 -7.37336 -11.3055 -22.0838 10.0775 -36.6492 -17.8208 -11.2025 30.809 12.3043 -5.12678 -35.0074 -0.178064 3.79814 12.3905 24.7837 8.87319 28.5657 -10.9766 -27.5179 -40.13 -15.4261 
6.06274 85.8023 167.234 -3.63171 5.32978 -16.7353 1.80044 4.93501 -3.89618 2.45564 48.6568 -77.0285 0.000346296 1.90932e-05 -55.8038 9.43092 -3.20996 -2.86387 4.76686 -3.66096 -11.5823 59.5978 33.0933 11.8787 -7.32141e-05 -4.58735e-06 31.5076 -6.38149 -9.1518 -24.3573 9.13506 -36.5975 -19.5939 -12.7357 34.9603 13.0911 -5.27186 -36.8895 -0.290143 6.41999 8.3711 23.6638 12.5071 40.2642 -15.9069 -25.7888 -36.3058 -13.7194 
5.44019 85.6872 170.395 -4.06692 5.6059 -15.7035 2.80303 4.92973 -2.96387 1.91925 52.5606 -73.4906 0.000345328 2.04457e-05 -52.9982 10.4129 -6.18866 -1.4731 4.82167 -3.95718 -9.46036 55.7287 34.2822 16.5361 -7.31642e-05 -4.55637e-06 32.1332 -5.01083 -7.51754 -25.8616 8.61276 -36.1632 -20.0755 -13.5874 38.168 12.8555 -5.24652 -39.6738 -0.434787 9.37696 2.93378 22.3003 16.9967 53.1791 -22.7826 -23.7684 -33.0715 -10.5148 
4.86375 85.8554 173.544 -4.30276 5.85028 -14.8483 3.47598 4.84311 -2.01096 -2.23033 55.904 -67.0254 0.000343835 2.22893e-05 -48.9963 10.0722 -9.38989 -0.52147 4.67172 -4.43242 -7.58706 51.5451 35.2593 21.0383 -7.30382e-05 -4.47479e-06 33.7313 -3.57579 -7.46873 -25.8083 8.42071 -34.9391 -19.8639 -14.2333 39.7977 12.203 -4.76953 -42.3523 -0.563306 11.5318 -3.06869 21.0759 23.5055 64.1013 -30.5334 -23.3334 -31.6603 -7.85463 
4.23471 86.4051 176.842 -4.16162 5.83359 -14.3507 3.55346 4.73875 -0.985442 -11.2302 57.9791 -56.4418 0.000341856 2.43797e-05 -44.14 8.77136 -12.4701 0.50098 4.28644 -4.97163 -5.79974 47.13 36.2162 25.4329 -7.28881e-05 -4.3708e-06 35.6764 -3.12764 -9.30438 -24.6063 7.87701 -32.5649 -20.2091 -14.5521 39.8525 12.0051 -4.60742 -44.6665 -0.736743 12.7451 -8.96058 20.7562 31.4198 70.5896 -38.9746 -22.5258 -32.8112 -6.2146 
3.5278 87.2437 180.313 -3.68952 5.41206 -14.2668 3.09287 4.68129 0.137616 -23.0876 58.1936 -43.1645 0.000339775 2.62393e-05 -39.4318 7.61319 -16.1439 3.41676 3.84511 -5.37562 -4.03645 42.8757 37.2885 29.5261 -7.27211e-05 -4.24596e-06 37.8964 -4.2723 -12.2916 -23.3082 7.02636 -29.0076 -20.967 -14.5744 38.5693 12.1903 -4.71934 -46.605 -0.958554 13.6445 -14.2444 21.6435 35.4425 72.6994 -43.1134 -19.558 -35.2889 -6.23079 
2.79343 88.1757 183.891 -3.10639 4.6638 -14.3339 2.26378 4.69956 1.28659 -33.5835 56.9419 -30.8397 0.000338113 2.75223e-05 -35.8897 7.23962 -21.3347 10.6628 3.6146 -5.56758 -2.4937 39.3601 38.1674 32.7866 -7.25077e-05 -4.07086e-06 40.8363 -6.34285 -15.0874 -22.4783 6.28338 -24.5704 -21.3515 -14.2776 36.3112 12.0444 -4.14757 -47.7925 -1.02769 14.3486 -18.7764 23.3268 33.002 71.5926 -40.6217 -15.7061 -37.5753 -7.19209 
2.08165 88.9949 187.488 -2.57508 3.86351 -14.2825 1.33894 4.76966 2.31915 -40.882 55.19 -21.1735 0.000336827 2.84079e-05 -33.2574 7.26401 -27.3163 19.9027 3.66743 -5.65901 -1.38251 36.8078 38.5202 34.9946 -7.22466e-05 -3.82967e-06 44.6222 -8.28354 -16.8094 -21.819 5.32533 -19.7894 -21.4021 -12.9282 33.7768 11.025 -3.63128 -48.7822 -1.00138 14.6147 -22.8173 25.0163 27.0558 68.0383 -34.7256 -12.9186 -38.9072 -8.01295 
1.40576 89.6 191.051 -2.09073 3.31509 -13.9494 0.451407 4.79653 3.14727 -45.612 53.4612 -13.7524 0.000335541 2.92113e-05 -30.6987 6.28748 -32.1688 24.2193 3.75462 -5.90699 -0.666599 35.0275 38.2848 36.2832 -7.19749e-05 -3.54109e-06 48.8433 -9.5953 -17.5017 -20.7658 4.42148 -15.1998 -21.6832 -11.5097 30.9892 10.0118 -3.12179 -49.7192 -0.940073 14.524 -26.5786 26.3468 20.5803 62.5359 -27.9568 -11.3996 -39.2978 -8.87225 
0.762411 90.0132 194.588 -1.56659 3.14774 -13.391 -0.35222 4.70878 3.77184 -48.8569 51.6464 -7.94169 0.000334344 2.98894e-05 -28.3787 3.99172 -34.7156 22.1251 3.61826 -6.46133 -0.115559 33.8063 37.7305 36.9596 -7.17346e-05 -3.24569e-06 52.8992 -10.7881 -17.3617 -19.4279 3.35972 -10.9408 -22.4724 -9.78438 28.0627 9.26652 -2.92058 -50.5865 -0.884828 13.862 -30.0696 27.7656 16.2279 54.931 -22.9587 -10.1189 -38.842 -9.25374 
0.146353 90.3057 198.134 -0.994111 3.22641 -12.7487 -1.15454 4.53896 4.21568 -51.3386 49.5098 -3.29045 0.000333472 3.03443e-05 -26.7198 2.12636 -34.7012 17.579 3.27212 -7.21649 0.484971 33.1787 37.1819 37.1683 -7.15377e-05 -2.96745e-06 56.5295 -12.2534 -16.5376 -18.6476 2.34825 -6.66989 -23.2719 -7.81158 24.6278 8.50417 -2.8932 -51.1034 -0.820944 12.7311 -32.661 29.4113 13.2806 46.1739 -18.3624 -9.68346 -37.9846 -10.774 
-0.419331 90.483 201.801 -0.51917 3.283 -12.0869 -2.02737 4.40362 4.48962 -53.5419 47.0277 0.633318 0.000332971 3.05911e-05 -25.7785 2.1852 -32.9087 13.9858 2.99236 -7.89754 1.22535 33.259 36.7808 36.8 -7.13736e-05 -2.7028e-06 59.8463 -12.9783 -15.4105 -18.7243 1.83797 -1.84444 -23.6022 -6.03051 20.1676 7.34109 -2.60363 -50.9669 -0.682766 11.9076 -34.4349 30.6751 9.15661 36.7463 -13.4437 -8.86726 -36.2696 -11.8568 
-0.865629 90.3448 205.448 -0.285469 3.15761 -11.38 -2.71344 4.32325 4.71049 -55.6887 44.279 4.44682 0.000333479 3.03407e-05 -26.7333 3.82777 -30.7131 12.548 3.1296 -8.39396 2.11548 34.0195 36.5571 35.8176 -7.12453e-05 -2.4689e-06 62.687 -12.1021 -14.3137 -19.011 1.82623 2.86089 -23.7305 -5.05916 16.1775 5.95187 -1.97648 -50.7378 -0.510116 11.4266 -34.5761 30.7637 3.59595 27.0018 -9.43662 -6.1044 -34.5975 -10.5996 
-1.11668 89.781 209.061 -0.227753 2.92743 -10.6188 -2.99719 4.18787 5.04773 -57.6642 41.4213 7.64632 0.000334613 2.97425e-05 -28.8956 4.95857 -29.1701 11.8946 3.70112 -8.81514 3.16205 35.2711 36.5333 34.2891 -7.11618e-05 -2.29993e-06 64.6943 -10.2383 -13.2994 -18.9041 1.76737 6.23069 -24.2279 -5.1055 15.0377 4.93726 -1.13133 -51.2483 -0.337503 9.80232 -33.3494 30.0771 0.23757 17.3045 -8.39068 -2.47293 -32.3884 -7.3247 
-1.15501 88.9817 212.705 -0.0975788 2.77669 -9.83705 -3.22435 3.94662 5.42722 -59.5992 38.9667 10.1081 0.000335836 2.90339e-05 -31.2796 5.05203 -28.2449 11.3415 4.20845 -9.22684 4.31825 36.8178 36.765 32.2866 -7.11202e-05 -2.20981e-06 65.7513 -8.35346 -12.3049 -18.5052 1.58783 8.17787 -25.2854 -6.40981 16.3457 4.23394 1.05917 -51.6002 0.986251 7.1861 -32.4986 30.3815 0.417431 11.864 -8.62724 -0.925762 -29.919 -5.80701 
-1.00129 88.254 216.341 0.253676 2.75338 -9.06184 -3.57082 3.58081 5.70224 -61.4073 37.6375 11.6484 0.000336714 2.84817e-05 -33.0297 4.33102 -27.3327 10.2316 4.30455 -9.74776 5.40267 38.7132 37.3468 29.9192 -7.11256e-05 -2.22182e-06 65.6109 -6.95577 -11.3489 -18.263 1.58792 9.37083 -26.6181 -9.02897 18.2185 3.47507 4.94517 -50.0338 3.85251 4.86818 -33.5745 32.4374 3.39849 13.8859 -9.83659 -0.530399 -28.356 -4.88838 
